<svg width="93" height="92" viewBox="0 0 93 92" fill="none" xmlns="http://www.w3.org/2000/svg">
<path fill-rule="evenodd" clip-rule="evenodd" d="M65.9936 15.5286C67.0509 15.5304 68.1072 15.5929 69.1573 15.7157C84.8247 17.8168 95.5896 33.2246 92.1905 48.6082C90.8649 54.6799 87.5123 60.1196 82.6842 64.0326C77.856 67.9455 71.8399 70.0988 65.6253 70.1381H58.652H52.065C50.559 70.1381 48.5172 70.1418 46.2591 70.146C41.0536 70.1556 34.6987 70.1672 31.109 70.1399V76.8699L13.7753 64.2817L31.109 51.6874V57.6118C31.362 57.598 31.6176 57.5921 31.8755 57.5921C34.6748 57.5921 38.0601 57.5956 41.6664 57.5993C49.6341 57.6076 58.68 57.617 64.8646 57.5921C65.0512 57.5921 65.2464 57.5848 65.4454 57.5774C65.6522 57.5697 65.8629 57.5619 66.0721 57.5619C67.1241 57.5254 68.1697 57.3838 69.1935 57.1393C72.685 56.2373 75.7277 54.093 77.7513 51.1081C79.7748 48.1233 80.6403 44.503 80.1856 40.9257C79.7308 37.3484 77.987 34.0597 75.281 31.6761C72.575 29.2925 69.0926 27.9777 65.4865 27.978C63.3977 27.9521 58.7584 27.9631 55.2052 27.9716C53.7774 27.975 52.5249 27.978 51.6838 27.978C50.9209 27.9919 50.1591 27.9169 49.4136 27.7546C47.9383 27.3421 46.6656 26.4025 45.837 25.1139C45.0083 23.8254 44.6814 22.2776 44.9181 20.7641C45.1549 19.2505 45.9389 17.8765 47.1214 16.9026C48.3039 15.9286 49.8027 15.4225 51.3336 15.4803C54.5395 15.4621 62.7636 15.4923 65.9936 15.5286Z" fill="black"/>
<path d="M68.4209 65.1872H67.0927V63.3759H68.3787C70.8502 63.4122 73.3006 62.916 75.5633 61.9209L76.312 63.5752C73.8266 64.6688 71.1361 65.2184 68.4209 65.1872ZM58.0364 65.1872H48.98V63.3759H58.0364V65.1872ZM39.9237 65.1872H30.8674V63.3759H39.9237V65.1872ZM83.4785 57.429L81.9873 56.4207C82.9816 54.9684 83.7927 53.3988 84.4023 51.7476C84.8008 50.6757 85.1276 49.5785 85.3804 48.4632L87.1433 48.8617C86.876 50.0594 86.527 51.2375 86.0988 52.3876C85.4347 54.1688 84.5547 55.8619 83.4785 57.429ZM85.8936 39.7329C85.6234 36.8336 84.8038 34.0121 83.4785 31.4192L85.0785 30.58C86.5198 33.3716 87.4152 36.4125 87.7169 39.5397L85.8936 39.7329ZM77.761 25.1342C77.1684 24.7501 76.5466 24.413 75.9014 24.1259C73.9083 23.2764 71.7756 22.8015 69.6103 22.7252L69.725 20.9139C72.1092 21.0008 74.4568 21.5268 76.6501 22.4656C77.3726 22.7937 78.0707 23.173 78.7391 23.6006L77.761 25.1342ZM60.6144 22.689H54.3112V20.8777H60.6325L60.6144 22.689Z" fill="white"/>
<path d="M0 0L10.8676 12.3166H42.6612V92L53.3235 76.6646V11.2298L80.9513 10.6019L89.5427 0H0Z" fill="url(#paint0_linear_643_2013)"/>
<path d="M46.8962 2.415L53.4892 9.89551H13.086L6.48096 2.415H46.8962Z" fill="black"/>
<path d="M43.0682 7.06393H34.0119V5.25267H43.0682V7.06393ZM24.9556 7.06393H15.8993V5.25267H24.9556V7.06393Z" fill="white"/>
<defs>
<linearGradient id="paint0_linear_643_2013" x1="44.7714" y1="0" x2="44.7714" y2="92" gradientUnits="userSpaceOnUse">
<stop stop-color="#FCE001"/>
<stop offset="1" stop-color="#FDB813"/>
</linearGradient>
</defs>
</svg>
