<svg width="197" height="62" viewBox="0 0 197 62" fill="none" xmlns="http://www.w3.org/2000/svg">
<g filter="url(#filter0_d_643_2021)">
<path d="M190.881 32.7761V10.4849H184.451V12.5113C183.601 11.7444 182.616 11.1419 181.546 10.7348C180.406 10.3042 179.199 10.0756 177.98 10.0593H177.804C175.783 10.0375 173.794 10.5577 172.042 11.5656C170.301 12.5695 168.868 14.0322 167.901 15.7942C166.871 17.6533 166.343 19.7484 166.368 21.8736C166.346 23.9604 166.857 26.0183 167.854 27.8517C168.433 28.912 169.181 29.8704 170.07 30.6888C170.658 31.2412 171.306 31.7261 172.002 32.1343C172.956 32.7006 173.993 33.1153 175.075 33.3637C176.026 33.5947 177.001 33.7081 177.98 33.7015C179.208 33.7189 180.431 33.5247 181.593 33.1273C181.796 33.053 182.026 32.9517 182.269 32.8369C183.022 32.4429 183.753 32.0076 184.458 31.5332V39.2878C184.462 40.2583 184.201 41.2117 183.704 42.045C183.206 42.8783 182.491 43.5599 181.634 44.0162C180.865 44.4254 180.006 44.6388 179.135 44.6377C178.263 44.6405 177.404 44.4269 176.635 44.0162C175.835 43.5918 175.156 42.9701 174.663 42.21C174.17 41.45 173.88 40.5767 173.819 39.6728V39.3216H167.449C167.713 42.1447 168.984 44.7783 171.031 46.7406C173.078 48.7029 175.763 49.8627 178.594 50.0078H179.216H179.344C181.79 49.9824 184.168 49.1971 186.148 47.7605C188.128 46.3239 189.612 44.3073 190.395 41.9898C190.756 40.5228 190.957 39.0213 190.996 37.5113C191.037 35.5591 190.902 33.8366 190.881 32.7761ZM184.032 24.9741C183.592 25.7071 183.005 26.3417 182.31 26.8385C182.124 26.9762 181.93 27.1025 181.729 27.2168C180.776 27.7603 179.697 28.0423 178.601 28.0341C177.507 28.0424 176.43 27.7604 175.48 27.2168L175.271 27.0884C174.415 26.5669 173.702 25.8403 173.197 24.9741C172.642 24.0525 172.35 22.9966 172.353 21.9209C172.349 20.8429 172.641 19.7846 173.197 18.8609C173.745 17.9254 174.533 17.1534 175.48 16.6251C176.429 16.0794 177.506 15.7951 178.601 15.801C179.704 15.7967 180.789 16.0807 181.749 16.6251C182.703 17.1505 183.499 17.9227 184.052 18.8609C184.608 19.7846 184.9 20.8429 184.897 21.9209C184.898 22.9993 184.599 24.0568 184.032 24.9741Z" fill="black"/>
<path d="M34.9309 10.2147C33.6893 10.2217 32.4636 10.4959 31.3373 11.0185C30.1291 11.5688 29.1231 12.4827 28.4597 13.6327V10.4849H22.0291V33.9717H28.4597V21.9615C28.4108 20.7168 28.855 19.5031 29.6959 18.584C30.3506 17.7887 31.2472 17.2289 32.2492 16.9899C32.8987 16.8534 33.5585 16.772 34.2217 16.7467C35.1434 16.754 36.0572 16.9185 36.9236 17.233V10.3971C36.2657 10.2803 35.5991 10.2193 34.9309 10.2147Z" fill="black"/>
<path d="M56.7763 10.4849V12.5114C55.9262 11.7464 54.9412 11.1463 53.8717 10.7416C52.7317 10.3146 51.5222 10.1039 50.3051 10.1201C48.2562 10.1076 46.2445 10.6667 44.4959 11.7345C42.7279 12.8135 41.2707 14.3336 40.2673 16.1455C39.2142 18.0118 38.6714 20.1227 38.6934 22.2655C38.6785 24.371 39.2216 26.443 40.2673 28.2706C41.2855 30.0858 42.7503 31.611 44.5229 32.7018C46.2532 33.7938 48.2589 34.3703 50.3051 34.3635C51.5202 34.3763 52.7279 34.1727 53.8717 33.7623C54.9339 33.3732 55.9177 32.7967 56.7763 32.0601V34.0055H63.2002V10.4849H56.7763ZM56.3507 25.3457C55.792 26.3028 54.9994 27.1023 54.0473 27.6694C53.1078 28.2425 52.027 28.542 50.9265 28.534C49.8014 28.5519 48.694 28.2522 47.7314 27.6694C46.7998 27.1074 46.0295 26.3139 45.4956 25.366C44.9499 24.4168 44.6655 23.34 44.6715 22.2452C44.6665 21.142 44.9507 20.0567 45.4956 19.0974C46.0286 18.135 46.807 17.3309 47.7517 16.767C48.7104 16.1924 49.8089 15.8932 50.9265 15.9023C52.0303 15.8974 53.1127 16.2066 54.0473 16.794C54.9974 17.3724 55.7889 18.1779 56.3507 19.1379C56.9178 20.075 57.2169 21.1498 57.2153 22.2452C57.2074 23.3356 56.9014 24.4032 56.3304 25.3322L56.3507 25.3457Z" fill="black"/>
<path d="M83.9581 10.4849L78.5541 29.5405L73.1502 10.4849H66.3278L73.4204 33.9717H83.7419L90.8346 10.4849H83.9581Z" fill="black"/>
<path d="M114.814 22.3195C114.811 21.4525 114.707 20.5887 114.504 19.7459C114.135 17.9453 113.354 16.255 112.22 14.808C111.097 13.3518 109.658 12.1693 108.012 11.3495C106.357 10.5096 104.525 10.0766 102.669 10.0863C100.553 10.0776 98.4722 10.635 96.6436 11.7008C94.8062 12.7582 93.2782 14.2791 92.2124 16.1117C91.1201 17.965 90.5527 20.0806 90.571 22.2317C90.5616 24.3456 91.1116 26.4244 92.1651 28.2571C93.2111 30.0964 94.7261 31.6255 96.5558 32.6883C98.4066 33.7806 100.52 34.3481 102.669 34.3297C104.958 34.3192 107.21 33.7487 109.228 32.668C111.185 31.7276 112.787 30.1806 113.794 28.2571L108.208 26.6629C107.465 27.326 106.59 27.8254 105.641 28.1287C104.68 28.4676 103.668 28.6412 102.649 28.6421C101.78 28.6498 100.917 28.4987 100.102 28.1963C99.3283 27.9145 98.6334 27.4512 98.0757 26.8453C97.4981 26.2105 97.0873 25.4422 96.8801 24.6094H114.524C114.71 23.86 114.807 23.0915 114.814 22.3195ZM96.9071 19.7459C97.1532 19.0207 97.5387 18.3507 98.0419 17.7734C98.5773 17.1522 99.241 16.6544 99.9873 16.3144C100.815 15.9342 101.718 15.7449 102.628 15.7605C103.531 15.7441 104.425 15.9335 105.243 16.3144C105.98 16.6601 106.636 17.1573 107.168 17.7734C107.669 18.3524 108.054 19.0219 108.303 19.7459H96.9071Z" fill="black"/>
<path d="M117.935 2.94641V33.9717H124.359V2.94641H117.935Z" fill="black"/>
<path d="M128.818 10.4849V33.9717H135.248V10.4849H128.818ZM134.897 2.10877C134.53 1.74704 134.093 1.46263 133.614 1.27235C133.135 1.08208 132.623 0.989794 132.107 1.00097C131.592 0.989411 131.079 1.08152 130.6 1.27182C130.121 1.46212 129.685 1.74672 129.317 2.10877C128.946 2.4526 128.651 2.87097 128.452 3.33655C128.253 3.80213 128.154 4.30446 128.162 4.81074C128.15 5.31756 128.247 5.82109 128.446 6.28725C128.645 6.75341 128.943 7.17132 129.317 7.5127C129.688 7.86832 130.125 8.14741 130.604 8.33402C131.083 8.52062 131.593 8.61108 132.107 8.60024C133.144 8.62065 134.147 8.22965 134.897 7.5127C135.272 7.17132 135.569 6.75341 135.768 6.28725C135.967 5.82109 136.064 5.31756 136.052 4.81074C136.059 4.30396 135.96 3.80132 135.76 3.33571C135.559 2.87009 135.263 2.452 134.89 2.10877H134.897Z" fill="black"/>
<path d="M161.221 14.4703C160.349 13.0889 159.115 11.9723 157.654 11.2414C156.163 10.4906 154.514 10.104 152.845 10.1134C151.578 10.0951 150.321 10.3246 149.143 10.7889C148.075 11.2217 147.104 11.8623 146.286 12.6735V10.5052H139.862V33.992H146.286V21.8331C146.284 20.828 146.516 19.8362 146.961 18.9353C147.37 18.0839 148.006 17.3618 148.798 16.848C149.62 16.3281 150.576 16.0603 151.548 16.078C152.372 16.0681 153.184 16.2805 153.898 16.6927C154.61 17.1118 155.192 17.7196 155.58 18.4489C156.005 19.2443 156.219 20.1348 156.202 21.0361V33.9785H162.626V19.3946C162.647 17.6514 162.159 15.9399 161.221 14.4703Z" fill="black"/>
<path d="M12.329 10.3228V3.87183H18.2396V33.8231H12.4236V16.0374H5.54712V10.3228H12.329Z" fill="black"/>
</g>
<g filter="url(#filter1_dd_643_2021)">
<path d="M102.858 44.658C102.841 43.7135 103.074 42.7813 103.534 41.956C103.973 41.1628 104.611 40.4972 105.385 40.0241C106.151 39.5545 107.033 39.3088 107.931 39.3149C108.464 39.3076 108.993 39.3992 109.492 39.5851C109.961 39.7642 110.394 40.0274 110.768 40.3619V39.4905H113.578V49.7782H110.768V48.9203C110.391 49.2442 109.958 49.4982 109.492 49.6702C108.991 49.8505 108.463 49.9397 107.931 49.9336C107.035 49.9354 106.156 49.6824 105.398 49.2041C104.623 48.7253 103.982 48.0584 103.534 47.2654C103.086 46.4697 102.853 45.5711 102.858 44.658ZM105.479 44.658C105.48 45.1317 105.604 45.597 105.837 46.009C106.073 46.4223 106.41 46.7687 106.817 47.0155C107.238 47.2704 107.723 47.4015 108.215 47.3937C108.692 47.3952 109.159 47.2642 109.566 47.0155C109.984 46.7684 110.331 46.4169 110.572 45.9955C110.821 45.5887 110.952 45.1211 110.951 44.6445C110.952 44.1679 110.821 43.7003 110.572 43.2935C110.327 42.873 109.981 42.5202 109.566 42.2668C109.162 42.0109 108.693 41.875 108.215 41.875C107.728 41.8739 107.249 42.0046 106.83 42.2533C106.416 42.5007 106.073 42.8523 105.837 43.2732C105.6 43.696 105.477 44.1732 105.479 44.658Z" fill="black"/>
<path d="M115.436 49.8052V39.5175H118.253V40.8685C118.545 40.3664 118.983 39.9657 119.509 39.7202C120.004 39.4942 120.54 39.3746 121.083 39.3689C121.378 39.3706 121.672 39.3977 121.961 39.4499V42.4559C121.58 42.3189 121.178 42.2481 120.773 42.2465C120.482 42.2571 120.192 42.2933 119.908 42.3546C119.473 42.4541 119.083 42.691 118.793 43.0301C118.429 43.4295 118.235 43.9555 118.253 44.4959V49.7579L115.436 49.8052Z" fill="black"/>
<path d="M125.23 39.5175V37.2614L128.007 36.4643V39.5175H130.979V41.9425H128.007V46.367C128.011 46.4987 128.045 46.6279 128.105 46.7448C128.166 46.8617 128.253 46.9635 128.358 47.0425C128.555 47.222 128.808 47.3272 129.074 47.3397H129.479C130.042 47.3178 130.597 47.1918 131.114 46.9682V49.6701C130.456 49.8669 129.774 49.9714 129.088 49.9809C128.634 49.9636 128.182 49.9116 127.737 49.8255C127.066 49.6756 126.468 49.2956 126.048 48.7515C125.491 48.0842 125.2 47.2353 125.23 46.367V41.9425H123.481V39.5175H125.23Z" fill="black"/>
<path d="M132.661 39.5175H135.478V40.4632C135.84 40.1104 136.267 39.8306 136.734 39.6391C137.251 39.4365 137.801 39.3356 138.356 39.3419C139.087 39.3365 139.81 39.5056 140.463 39.835C141.106 40.1577 141.648 40.6507 142.03 41.2603C142.434 41.9054 142.64 42.6543 142.625 43.4151V49.8052H139.808V44.1379C139.817 43.7405 139.724 43.3473 139.538 42.9963C139.364 42.681 139.11 42.4175 138.801 42.233C138.487 42.0521 138.13 41.9588 137.768 41.9628C137.342 41.953 136.924 42.0706 136.565 42.3005C136.22 42.5263 135.942 42.8414 135.762 43.2124C135.57 43.608 135.473 44.0428 135.478 44.4824V49.8052H132.661V39.5175Z" fill="black"/>
<path d="M143.888 44.658C143.874 43.7087 144.122 42.7739 144.604 41.956C145.071 41.1521 145.742 40.4856 146.549 40.0241C147.35 39.5545 148.262 39.3095 149.19 39.3148C150.002 39.3102 150.804 39.5002 151.528 39.8688C152.249 40.2275 152.879 40.7448 153.372 41.3818C153.868 42.0154 154.21 42.7553 154.371 43.5434C154.458 43.9133 154.503 44.2916 154.506 44.6715C154.507 45.0103 154.468 45.348 154.392 45.678H146.664C146.754 46.0443 146.933 46.3828 147.184 46.6642C147.429 46.9262 147.732 47.1274 148.069 47.2519C148.428 47.384 148.808 47.4504 149.19 47.4478C149.636 47.4461 150.079 47.3708 150.501 47.2248C150.915 47.0799 151.295 46.8498 151.615 46.5493L154.061 47.2248C153.613 48.0721 152.902 48.7504 152.034 49.1568C151.151 49.6306 150.165 49.881 149.163 49.8863C148.215 49.8956 147.281 49.6482 146.461 49.1703C145.658 48.7048 144.993 48.0331 144.536 47.2248C144.104 46.4389 143.88 45.555 143.888 44.658ZM146.664 43.5704H151.656C151.544 43.2537 151.375 42.9605 151.156 42.7058C150.925 42.4347 150.636 42.2179 150.312 42.0708C149.954 41.9043 149.564 41.8212 149.17 41.8277C148.772 41.8203 148.377 41.9035 148.015 42.0708C147.686 42.2175 147.393 42.4342 147.157 42.7058C146.94 42.9603 146.772 43.2537 146.664 43.5704Z" fill="black"/>
<path d="M156.053 49.8052V39.5175H158.863V40.8685C159.158 40.3662 159.599 39.9656 160.127 39.7202C160.621 39.4942 161.157 39.3746 161.7 39.3689C161.993 39.3706 162.284 39.3977 162.572 39.4499V42.4559C162.193 42.3184 161.793 42.2475 161.39 42.2465C161.099 42.2567 160.81 42.2929 160.525 42.3546C160.091 42.4541 159.7 42.691 159.411 43.0301C159.044 43.4285 158.847 43.9546 158.863 44.4959V49.7579L156.053 49.8052Z" fill="black"/>
<path d="M93.1381 54H90.5713V39.6121H93.0639L93.1989 40.6321C93.3138 40.5787 93.4225 40.513 93.5232 40.4362C95.0228 38.8488 97.9612 38.9231 99.6972 40.4362C100.334 41.0057 100.836 41.71 101.166 42.4979C101.496 43.2857 101.647 44.1373 101.607 44.9907C101.567 45.844 101.337 46.6777 100.934 47.4311C100.531 48.1845 99.9657 48.8386 99.2784 49.3459C98.6579 49.7838 97.9411 50.0659 97.1886 50.1681C96.4361 50.2704 95.67 50.19 94.9552 49.9336V47.6302C95.347 47.6302 95.732 47.6909 96.1103 47.6909C96.4924 47.7035 96.8729 47.6368 97.228 47.4951C97.583 47.3533 97.9049 47.1396 98.1733 46.8674C98.4417 46.5952 98.6508 46.2704 98.7875 45.9134C98.9242 45.5564 98.9856 45.175 98.9676 44.7931C98.9957 44.3974 98.9414 44.0002 98.8079 43.6267C98.6745 43.2531 98.4649 42.9114 98.1925 42.6231C97.92 42.3348 97.5907 42.1062 97.2253 41.9518C96.8599 41.7975 96.4664 41.7207 96.0698 41.7264C95.6874 41.7182 95.3073 41.7868 94.9519 41.9279C94.5965 42.0691 94.2729 42.2799 94.0003 42.5481C93.7277 42.8164 93.5116 43.1364 93.3647 43.4895C93.2177 43.8426 93.143 44.2215 93.1449 44.604C93.1449 46.9141 93.1449 49.2311 93.1449 51.5413L93.1381 54Z" fill="black"/>
</g>
<defs>
<filter id="filter0_d_643_2021" x="0.547119" y="0" width="195.457" height="59.0078" filterUnits="userSpaceOnUse" color-interpolation-filters="sRGB">
<feFlood flood-opacity="0" result="BackgroundImageFix"/>
<feColorMatrix in="SourceAlpha" type="matrix" values="0 0 0 0 0 0 0 0 0 0 0 0 0 0 0 0 0 0 127 0" result="hardAlpha"/>
<feOffset dy="4"/>
<feGaussianBlur stdDeviation="2.5"/>
<feComposite in2="hardAlpha" operator="out"/>
<feColorMatrix type="matrix" values="0 0 0 0 0 0 0 0 0 0 0 0 0 0 0 0 0 0 0.25 0"/>
<feBlend mode="normal" in2="BackgroundImageFix" result="effect1_dropShadow_643_2021"/>
<feBlend mode="normal" in="SourceGraphic" in2="effect1_dropShadow_643_2021" result="shape"/>
</filter>
<filter id="filter1_dd_643_2021" x="86.5713" y="36.4643" width="80.0005" height="25.5357" filterUnits="userSpaceOnUse" color-interpolation-filters="sRGB">
<feFlood flood-opacity="0" result="BackgroundImageFix"/>
<feColorMatrix in="SourceAlpha" type="matrix" values="0 0 0 0 0 0 0 0 0 0 0 0 0 0 0 0 0 0 127 0" result="hardAlpha"/>
<feOffset dy="4"/>
<feGaussianBlur stdDeviation="2"/>
<feComposite in2="hardAlpha" operator="out"/>
<feColorMatrix type="matrix" values="0 0 0 0 0 0 0 0 0 0 0 0 0 0 0 0 0 0 0.25 0"/>
<feBlend mode="normal" in2="BackgroundImageFix" result="effect1_dropShadow_643_2021"/>
<feColorMatrix in="SourceAlpha" type="matrix" values="0 0 0 0 0 0 0 0 0 0 0 0 0 0 0 0 0 0 127 0" result="hardAlpha"/>
<feOffset dy="4"/>
<feGaussianBlur stdDeviation="2"/>
<feComposite in2="hardAlpha" operator="out"/>
<feColorMatrix type="matrix" values="0 0 0 0 0 0 0 0 0 0 0 0 0 0 0 0 0 0 0.25 0"/>
<feBlend mode="normal" in2="effect1_dropShadow_643_2021" result="effect2_dropShadow_643_2021"/>
<feBlend mode="normal" in="SourceGraphic" in2="effect2_dropShadow_643_2021" result="shape"/>
</filter>
</defs>
</svg>
